<svg xmlns="http://www.w3.org/2000/svg" width="420" height="260" viewBox="0 0 420 260" role="img" aria-labelledby="title desc">
	<title id="title">Student profile illustration</title>
	<desc id="desc">A person studies at a desk with a laptop, notebook, and a small plant nearby.</desc>
	<rect width="420" height="260" fill="#f5f5f5"/>
	<rect x="36" y="170" width="348" height="18" rx="4" fill="#bdbdbd"/>
	<rect x="74" y="96" width="128" height="74" rx="6" fill="#90caf9"/>
	<rect x="82" y="104" width="112" height="58" rx="3" fill="#ffffff"/>
	<rect x="236" y="128" width="62" height="42" rx="4" fill="#ffe082"/>
	<circle cx="255" cy="72" r="28" fill="#ffcc80"/>
	<path d="M228 112c7-18 18-30 27-30 13 0 26 17 31 37v52h-61z" fill="#4db6ac"/>
	<path d="M242 110l-28 24v36h20l18-24z" fill="#80cbc4"/>
	<path d="M284 114l22 22v34h-18l-12-18z" fill="#26a69a"/>
	<rect x="318" y="118" width="14" height="52" rx="3" fill="#8d6e63"/>
	<circle cx="325" cy="106" r="16" fill="#81c784"/>
	<circle cx="314" cy="114" r="12" fill="#66bb6a"/>
	<circle cx="336" cy="114" r="11" fill="#66bb6a"/>
	<line x1="255" y1="100" x2="255" y2="145" stroke="#6d4c41" stroke-width="4"/>
	<line x1="272" y1="104" x2="292" y2="136" stroke="#6d4c41" stroke-width="4"/>
	<line x1="240" y1="110" x2="218" y2="142" stroke="#6d4c41" stroke-width="4"/>
	<line x1="254" y1="164" x2="242" y2="198" stroke="#6d4c41" stroke-width="4"/>
	<line x1="276" y1="164" x2="292" y2="198" stroke="#6d4c41" stroke-width="4"/>
	<circle cx="245" cy="70" r="3" fill="#5d4037"/>
	<circle cx="265" cy="70" r="3" fill="#5d4037"/>
	<path d="M245 84c5 6 16 6 21 0" fill="none" stroke="#5d4037" stroke-width="3" stroke-linecap="round"/>
</svg>