<svg width="1200" height="760" viewBox="0 0 1200 760" fill="none" xmlns="http://www.w3.org/2000/svg">
  <rect width="1200" height="760" rx="48" fill="#EEF2FF"/>
  <rect x="58" y="58" width="1084" height="644" rx="40" fill="#E0E7FF"/>
  <circle cx="236" cy="244" r="120" fill="#C7D2FE"/>
  <circle cx="920" cy="206" r="92" fill="#C4B5FD"/>
  <circle cx="642" cy="220" r="76" fill="#DDD6FE"/>
  <rect x="120" y="476" width="348" height="148" rx="28" fill="#3730A3"/>
  <rect x="508" y="476" width="584" height="148" rx="28" fill="#4F46E5"/>
  <rect x="166" y="522" width="160" height="18" rx="9" fill="#E0E7FF"/>
  <rect x="166" y="558" width="230" height="18" rx="9" fill="#C7D2FE"/>
  <rect x="554" y="516" width="228" height="18" rx="9" fill="#EEF2FF"/>
  <rect x="554" y="552" width="414" height="18" rx="9" fill="#C7D2FE"/>
  <path d="M340 338C340 283.876 383.876 240 438 240H762C816.124 240 860 283.876 860 338V438H340V338Z" fill="#6366F1"/>
  <circle cx="466" cy="332" r="48" fill="#EEF2FF"/>
  <circle cx="600" cy="332" r="48" fill="#C7D2FE"/>
  <circle cx="734" cy="332" r="48" fill="#DDD6FE"/>
  <text x="128" y="666" fill="#312E81" font-family="Arial, sans-serif" font-size="34" font-weight="700">Desktop art direction shows more surrounding context</text>
</svg>